<?xml version="1.0" standalone="no"?><!DOCTYPE svg PUBLIC "-//W3C//DTD SVG 1.1//EN" "http://www.w3.org/Graphics/SVG/1.1/DTD/svg11.dtd"><svg t="1539331582994" class="icon" style="" viewBox="0 0 1033 1024" version="1.1" xmlns="http://www.w3.org/2000/svg" p-id="10907" xmlns:xlink="http://www.w3.org/1999/xlink" width="504.39453125" height="500"><defs><style type="text/css"></style></defs><path d="M143.070504 138.55977v-37.380433c0-20.632057 16.687693-37.321099 37.31975-37.321098h746.941143C914.283306 41.648436 880.121744 26.538489 852.629866 26.538489H180.390254c-41.264114 0-74.640849 33.436069-74.640849 74.700182V922.819314c0 41.264114 33.437417 74.642197 74.640849 74.642197h37.380432V175.87952h-37.380432c-20.632057 0-37.31975-16.687693-37.31975-37.31975z" p-id="10908"></path><path d="M516.510734 175.87952H255.029754v821.580643h597.602809c41.264114 0 74.640849-33.438766 74.640848-74.642197V175.87952H516.510734z m261.359615 410.75998h-373.44023v-37.321098h373.380896v37.321098h0.059334z m0-111.960599h-373.44023v-37.318401h373.380896v37.318401h0.059334z m0-112.017235h-373.44023v-37.380433h373.380896v37.380433h0.059334z" p-id="10909"></path></svg>