<?xml version="1.0" standalone="no"?><!DOCTYPE svg PUBLIC "-//W3C//DTD SVG 1.1//EN" "http://www.w3.org/Graphics/SVG/1.1/DTD/svg11.dtd"><svg t="1539245612523" class="icon" style="" viewBox="0 0 1024 1024" version="1.1" xmlns="http://www.w3.org/2000/svg" p-id="4575" xmlns:xlink="http://www.w3.org/1999/xlink" width="200" height="200"><defs><style type="text/css"></style></defs><path d="M239.659574 19.988288v983.423775H62.263517v-983.423775h177.396057m7.995316-19.988288H54.268202c-6.596135 0-11.992973 5.396838-11.992973 11.992973v999.414405c0 6.596135 5.396838 11.992973 11.992973 11.992973h193.386688c6.596135 0 11.992973-5.396838 11.992973-11.992973V11.992973c0-6.596135-5.396838-11.992973-11.992973-11.992973zM431.54714 324.809682v678.602381h-117.9309v-678.602381h117.9309m7.995316-19.988288h-133.921531c-6.596135 0-11.992973 5.396838-11.992973 11.992973v694.593011c0 6.596135 5.396838 11.992973 11.992973 11.992973h133.921531c6.596135 0 11.992973-5.396838 11.992972-11.992973v-694.593011c0-6.596135-5.396838-11.992973-11.992972-11.992973zM776.145227 730.172165c-42.674995 0-77.454616 34.67968-77.454616 77.454616 0 42.674995 34.779621 77.454616 77.454616 77.454617s77.454616-34.779621 77.454617-77.454617c-0.099941-42.674995-34.779621-77.454616-77.454617-77.454616z m0 129.324224c-28.583252 0-51.869608-23.286356-51.869607-51.869608s23.286356-51.869608 51.869607-51.869607 51.869608 23.286356 51.869608 51.869607-23.286356 51.869608-51.869608 51.869608zM940.149131 750.060511h-7.495608l-0.599648-1.599063-2.098771 0.899473 1.798946-1.499121c-1.199297-2.998243-2.398595-5.996486-3.697833-8.99473l-0.599649-1.299239 5.296897-5.296896c9.894203-9.894203 15.390982-23.086473 15.390982-37.178216 0-13.991802-5.496779-27.284013-15.390982-37.178216l-6.995901-6.995901c-9.894203-9.894203-23.086473-15.390982-37.178216-15.390981-13.991802 0-27.284013 5.496779-37.178216 15.390981l-5.296896 5.296897-1.299239-0.599649c-3.198126-1.39918-6.496194-2.79836-9.794261-3.997658l-1.39918-0.499707v-7.495608c0-28.983018-23.58618-52.569198-52.569198-52.569198h-9.894203c-28.983018 0-52.569198 23.58618-52.569197 52.569198v7.495608l-1.399181 0.499707c-3.298068 1.199297-6.596135 2.598477-9.794261 3.997658l-1.39918 0.599649-5.296896-5.296897c-9.894203-9.894203-23.086473-15.390982-37.178216-15.390981s-27.184072 5.496779-37.178216 15.390981l-6.995901 6.995901c-9.894203 9.894203-15.390982 23.086473-15.390982 37.178216 0 13.991802 5.496779 27.284013 15.390982 37.178216l5.296897 5.296896-0.599649 1.299239c-1.299239 2.998243-2.598477 5.996486-3.697833 8.99473l-0.799532 2.09877h-7.495608c-28.983018 0-52.569198 23.58618-52.569198 52.569198v9.994144c0 28.983018 23.58618 52.569198 52.569198 52.569198h7.495608l0.799532 2.09877c1.199297 2.998243 2.398595 6.096428 3.697833 8.994729l0.599649 1.299239-5.296897 5.296896c-9.894203 9.894203-15.390982 23.086473-15.390982 37.178216s5.496779 27.284013 15.390982 37.178216l6.995901 6.995901c9.894203 9.894203 23.086473 15.390982 37.178216 15.390982s27.184072-5.496779 37.178216-15.390982l5.296896-5.296896 1.299239 0.599648c3.198126 1.39918 6.496194 2.79836 9.794261 3.997658l1.39918 0.499707v7.495608c0 28.983018 23.58618 52.569198 52.569198 52.569198h9.894203c28.983018 0 52.569198-23.58618 52.569197-52.569198V963.935194l1.39918-0.499707c3.298068-1.199297 6.596135-2.598477 9.794262-3.997658l1.299238-0.599648 5.296897 5.296896c9.894203 9.894203 23.086473 15.390982 37.178216 15.390982 14.091743 0 27.284013-5.496779 37.178215-15.390982l6.995901-6.995901c9.894203-9.894203 15.390982-23.086473 15.390982-37.178216s-5.296896-27.08413-15.29104-36.978333l-5.296897-5.296896 0.599649-1.299239c1.199297-2.698419 2.398595-5.596721 3.697833-8.994729l-2.09877-0.799532h2.498536l0.499707-1.299239h7.495608c28.983018 0 52.569198-23.58618 52.569198-52.569197v-9.994144c0-29.082959-23.58618-52.669139-52.569198-52.66914z m26.984189 62.563342c0 1.699004-0.199883 3.49795-0.499707 5.296897-0.099941 0.599649-0.299824 1.099356-0.399766 1.599063l-0.299824 1.099355c-0.199883 0.69959-0.399766 1.499122-0.69959 2.298654s-0.799532 1.599063-1.299239 2.598477l-0.299824 0.499707c-0.199883 0.299824-0.399766 0.799532-0.69959 1.199298-0.69959 1.099356-1.599063 2.198712-2.498536 3.198126-0.099941 0.199883-0.299824 0.399766-0.499707 0.499707-0.899473 0.999414-1.998829 1.898887-3.597892 3.198126-3.997658 2.998243-8.694905 4.797189-13.691978 5.296896-0.299824 0-0.499707 0-0.799531 0.099942-0.499707 0.099941-1.099356 0.099941-1.599063 0.099941H913.764591l-0.399766 1.699005c-3.298068 13.392153-8.894788 26.584423-16.590279 39.276986l-0.899473 1.499121 18.988874 18.988874c4.097599 4.097599 6.696077 9.394495 7.595549 15.790748 0.199883 1.599063 0.299824 2.998243 0.199883 4.297482 0 0.299824 0 0.599649-0.099941 1.099356-0.099941 1.099356-0.199883 2.398595-0.499707 3.697833-0.099941 0.499707-0.299824 0.899473-0.399766 1.299239l-0.299824 1.099355c-0.199883 0.69959-0.399766 1.499122-0.799532 2.298654-0.299824 0.799532-0.69959 1.499122-1.299239 2.498536l-0.299824 0.599648c-0.199883 0.399766-0.399766 0.799532-0.69959 1.299239-0.999414 1.499122-2.09877 2.79836-3.398009 4.097599l-6.995901 6.995901c-1.299239 1.299239-2.598477 2.398595-4.097599 3.398009-0.499707 0.299824-0.899473 0.499707-1.299239 0.69959l-0.599648 0.299824 1.099355 1.998829-1.699004-1.599063c-0.599649 0.299824-1.299239 0.69959-1.998829 0.999414s-1.499122 0.599649-2.198712 0.799532l0.599649 2.198712-1.299239-1.998829-0.599648 0.199883-1.199298 0.299824c-1.299239 0.299824-2.598477 0.399766-3.597891 0.499707l-2.098771 0.099942c-1.099356 0-2.198712-0.099941-3.897716-0.299825-5.896545-0.799532-11.193441-3.398009-15.29104-7.495608l-18.988874-18.988873-1.499122 0.899473c-12.692563 7.695491-25.884833 13.292212-39.276986 16.590279l-1.699004 0.399765v26.484482c0 0.69959-0.099941 1.299239-0.099942 1.699005l-0.099941 0.69959c-0.499707 4.997072-2.298653 9.794261-5.496779 14.091743-0.899473 1.199297-1.898887 2.298653-2.898302 3.298067-0.199883 0.199883-0.399766 0.299824-0.799532 0.69959-0.899473 0.799532-1.898887 1.599063-2.998243 2.298654-0.399766 0.299824-0.899473 0.499707-1.299239 0.69959l-0.69959 0.399765c-0.69959 0.399766-1.499122 0.799532-2.398594 1.199298-0.799532 0.299824-1.599063 0.499707-2.798361 0.899473l-0.599648 0.199883c-0.399766 0.099941-0.899473 0.299824-1.499122 0.399765-1.699004 0.299824-3.49795 0.499707-5.296896 0.499708h-9.894203c-1.798946 0-3.49795-0.199883-5.296896-0.499708-0.599649-0.099941-1.099356-0.299824-1.599063-0.499707l-1.099356-0.299824c-0.799532-0.199883-1.499122-0.399766-2.298653-0.69959-0.899473-0.399766-1.699004-0.799532-2.698419-1.39918l-0.499707-0.299825c-0.399766-0.199883-0.799532-0.399766-1.099356-0.599648-1.199297-0.799532-2.198712-1.599063-3.198126-2.498536-0.199883-0.099941-0.399766-0.299824-0.599649-0.499708-0.999414-0.899473-1.898887-1.998829-3.198126-3.597891-2.998243-3.997658-4.797189-8.694905-5.196955-13.592036l-0.099941-0.799532c-0.099941-0.499707-0.199883-0.999414-0.199883-1.699004v-26.384541l-1.699005-0.399765c-13.392153-3.298068-26.584423-8.894788-39.276986-16.59028l-1.499121-0.899473-18.888933 18.988874c-4.097599 4.097599-9.394495 6.696077-15.690806 7.59555-1.299239 0.199883-2.398595 0.199883-3.49795 0.199882l-1.898888-0.099941c-1.099356-0.099941-2.398595-0.199883-3.797774-0.499707-0.499707-0.099941-0.899473-0.199883-1.199298-0.299824l-0.899473-0.399766-0.599648 2.198711v-2.398594c-0.69959-0.199883-1.39918-0.399766-2.198712-0.799532-0.799532-0.299824-1.499122-0.69959-2.598477-1.299238l-0.69959-0.299825c-0.399766-0.199883-0.799532-0.399766-1.299239-0.69959-1.499122-0.999414-2.79836-2.09877-4.097599-3.398009l-6.995901-6.995901c-1.199297-1.299239-2.398595-2.698419-3.398009-4.097599-0.299824-0.499707-0.499707-0.899473-0.899473-1.499121l-0.499707-0.799532c-0.299824-0.599649-0.69959-1.299239-1.099356-2.09877-0.299824-0.69959-0.599649-1.499122-0.799532-2.298653l-0.399765-1.199297c-0.099941-0.299824-0.199883-0.69959-0.299825-1.099356-0.299824-1.299239-0.399766-2.598477-0.499707-4.197541v-0.599648c0-1.299239 0-2.698419 0.299824-4.79719 0.799532-5.896545 3.398009-11.193441 7.495608-15.29104l18.988874-18.988874-0.899473-1.499121c-7.695491-12.592622-13.292212-25.884833-16.590279-39.276986l-0.399766-1.699005H611.941441c-0.69959 0-1.199297-0.099941-1.699005-0.199883l-0.299824 2.198712-0.399766-2.298653c-4.997072-0.499707-9.794261-2.298653-14.091743-5.49678-1.099356-0.899473-2.198712-1.798946-3.198126-2.898301-0.199883-0.299824-0.499707-0.599649-0.69959-0.899473-0.799532-0.899473-1.599063-1.998829-2.298653-2.998243-0.299824-0.399766-0.399766-0.69959-0.599649-0.999415l-2.09877 0.899473 1.798946-1.499122-0.299825-0.499707c-0.399766-0.69959-0.799532-1.39918-1.099356-2.298653-0.299824-0.799532-0.499707-1.599063-0.899473-2.698419l-0.199882-0.599648c-0.199883-0.499707-0.299824-0.999414-0.399766-1.499122-0.399766-1.699004-0.499707-3.49795-0.499707-5.296896v-9.994144c0-1.798946 0.199883-3.49795 0.499707-5.296897 0.099941-0.599649 0.299824-1.099356 0.399766-1.599063l0.299824-1.099356c0.199883-0.69959 0.399766-1.39918 0.69959-2.198711s0.799532-1.599063 1.39918-2.698419l0.299824-0.499707c0.199883-0.299824 0.399766-0.69959 0.699591-1.199298 0.69959-1.099356 1.499122-2.09877 2.598477-3.298067 0.099941-0.199883 0.299824-0.299824 0.399766-0.499707 0.899473-0.999414 1.998829-1.898887 3.49795-3.198127 3.997658-2.998243 8.794847-4.797189 13.691978-5.196954l0.69959-0.099942c0.499707-0.099941 0.999414-0.199883 1.699004-0.199883h26.484482l0.399766-1.699004c3.298068-13.392153 8.894788-26.584423 16.590279-39.276986l0.899473-1.499122-18.988874-18.888932c-4.097599-4.097599-6.696077-9.394495-7.595549-15.790748-0.199883-1.39918-0.299824-2.898302-0.199883-4.297482l0.099941-1.099356c0.099941-1.199297 0.199883-2.398595 0.499707-3.797774 0.099941-0.499707 0.199883-0.899473 0.299825-1.199298l0.399765-1.299238c0.199883-0.69959 0.399766-1.39918 0.69959-2.098771 0.299824-0.799532 0.69959-1.499122 1.099356-2.09877l0.299825-0.499707-1.998829-1.099356 2.298653 0.499707c0.199883-0.399766 0.399766-0.799532 0.69959-1.299239 0.999414-1.499122 2.09877-2.898302 3.398009-4.097599l6.995901-6.9959c1.299239-1.199297 2.598477-2.398595 4.097599-3.398009 0.499707-0.299824 0.899473-0.499707 1.39918-0.799532l0.999415-0.599649c0.599649-0.299824 1.299239-0.69959 2.09877-1.099355 0.69959-0.299824 1.499122-0.499707 2.198711-0.799532l1.399181-0.399766c0.299824-0.099941 0.69959-0.199883 1.199297-0.299824 1.299239-0.299824 2.698419-0.399766 3.997658-0.499707 0.199883 0 0.399766 0 0.799531-0.099942h0.799532c1.099356 0 2.198712 0.099941 3.997657 0.299825 5.896545 0.799532 11.193441 3.398009 15.291041 7.495608l18.988873 18.988873 1.499122-0.899473c12.592622-7.695491 25.784892-13.292212 39.276986-16.590279l1.699005-0.399765v-26.484482c0-0.69959 0.099941-1.299239 0.099941-1.699005l0.099941-0.69959c0.499707-4.997072 2.298653-9.794261 5.49678-14.091743 0.999414-1.299239 1.898887-2.298653 2.898301-3.298067 0.199883-0.199883 0.399766-0.399766 0.799532-0.599649 0.899473-0.799532 1.898887-1.599063 2.998243-2.298653 0.399766-0.299824 0.799532-0.499707 1.299239-0.799532l0.599649-0.299824c0.69959-0.399766 1.499122-0.899473 2.398594-1.199297 0.799532-0.299824 1.599063-0.499707 2.298653-0.69959l1.099356-0.299825c0.399766-0.099941 0.899473-0.299824 1.499122-0.399766 1.699004-0.299824 3.49795-0.499707 5.296896-0.499707h9.894203c1.798946 0 3.49795 0.199883 5.296896 0.499707 0.599649 0.099941 0.999414 0.299824 1.599063 0.399766l1.099356 0.299825c0.69959 0.199883 1.39918 0.399766 2.298653 0.69959 0.899473 0.399766 1.699004 0.799532 2.698419 1.39918l0.69959 0.299824c0.299824 0.199883 0.599649 0.299824 0.999414 0.499707 1.099356 0.69959 2.09877 1.599063 3.198127 2.498536 0.099941 0.099941 0.299824 0.299824 0.599648 0.499708 0.999414 0.899473 1.998829 1.998829 3.198126 3.597891 2.998243 3.997658 4.797189 8.694905 5.296897 13.791919l0.099941 0.69959c0.099941 0.499707 0.099941 0.999414 0.099942 1.599063v26.384541l1.699004 0.399765c13.392153 3.298068 26.684365 8.894788 39.276986 16.59028l1.499122 0.899473 18.988873-18.988874c4.097599-4.097599 9.394495-6.696077 15.890689-7.59555 1.099356-0.199883 2.298653-0.199883 3.398009-0.199883h0.799532c0.299824 0 0.599649 0 1.099356 0.099942 0.999414 0.099941 2.298653 0.199883 3.697833 0.499707 0.499707 0.099941 0.899473 0.199883 1.798946 0.499707l0.69959 0.199883c0.69959 0.199883 1.499122 0.399766 2.298653 0.799532 0.799532 0.299824 1.499122 0.69959 2.598478 1.299238l0.69959 0.399766c0.299824 0.199883 0.799532 0.399766 1.199297 0.69959 1.499122 0.999414 2.898302 2.09877 4.097599 3.298068l6.995901 7.095842c1.199297 1.299239 2.398595 2.598477 3.298068 4.097599 0.299824 0.499707 0.499707 0.899473 0.799531 1.499122l0.499707 0.899473c0.299824 0.599649 0.69959 1.299239 1.099356 2.09877 0.299824 0.799532 0.599649 1.599063 0.799532 2.298653l0.399765 1.199297c0.099941 0.299824 0.199883 0.69959 0.299825 1.099356 0.299824 1.299239 0.399766 2.598477 0.499707 3.997658 0 0.199883 0 0.499707 0.099941 0.69959 0 1.299239 0 2.79836-0.299824 4.797189-0.799532 5.896545-3.398009 11.193441-7.495608 15.29104l-18.988874 18.988874 0.899473 1.499122c7.695491 12.592622 13.292212 25.884833 16.590279 39.276986l0.399766 1.699004h26.484482c0.599649 0 1.199297 0.099941 1.699004 0.199883l0.699591 0.099942c4.997072 0.499707 9.794261 2.298653 14.091743 5.496779 1.299239 0.999414 2.298653 1.898887 3.298067 2.998243 0.199883 0.199883 0.299824 0.299824 0.599649 0.799532 0.799532 0.899473 1.599063 1.798946 2.298653 2.998243 0.299824 0.399766 0.499707 0.799532 0.899473 1.599063l0.299824 0.499707c0.399766 0.69959 0.799532 1.39918 1.099356 2.198712s0.499707 1.499122 0.69959 2.09877l0.399766 1.199297c0.099941 0.399766 0.299824 0.999414 0.399766 1.599063 0.299824 1.798946 0.499707 3.49795 0.499707 5.296897l0.099941 10.293968z" p-id="4576" fill="#2B4CC9"></path><path d="M93.245364 882.982627c-1.099356 0-1.998829-0.899473-1.998829-1.998828s0.899473-1.998829 1.998829-1.998829h111.934413c1.099356 0 1.998829 0.899473 1.998829 1.998829s-0.899473 1.998829-1.998829 1.998828H93.245364z" p-id="4577" fill="#2B4CC9"></path><path d="M205.179777 868.990826H93.245364c-6.596135 0-11.992973 5.396838-11.992973 11.992973s5.396838 11.992973 11.992973 11.992972h111.934413c6.596135 0 11.992973-5.396838 11.992973-11.992972s-5.396838-11.992973-11.992973-11.992973z" p-id="4578" fill="#2B4CC9"></path><path d="M93.245364 930.954519c-1.099356 0-1.998829-0.899473-1.998829-1.998829s0.899473-1.998829 1.998829-1.998829h111.934413c1.099356 0 1.998829 0.899473 1.998829 1.998829s-0.899473 1.998829-1.998829 1.998829H93.245364z" p-id="4579" fill="#2B4CC9"></path><path d="M205.179777 916.962717H93.245364c-6.596135 0-11.992973 5.396838-11.992973 11.992973s5.396838 11.992973 11.992973 11.992973h111.934413c6.596135 0 11.992973-5.396838 11.992973-11.992973s-5.396838-11.992973-11.992973-11.992973z" p-id="4580" fill="#2B4CC9"></path><path d="M61.264103 79.453445c-1.099356 0-1.998829-0.899473-1.998829-1.998829v-0.999414c0-1.099356 0.899473-1.998829 1.998829-1.998829h181.893422c1.099356 0 1.998829 0.899473 1.998829 1.998829v0.999414c0 1.099356-0.899473 1.998829-1.998829 1.998829H61.264103z" p-id="4581" fill="#2B4CC9"></path><path d="M243.157525 64.462229H61.264103c-6.596135 0-11.992973 5.396838-11.992973 11.992973v0.999414c0 6.596135 5.396838 11.992973 11.992973 11.992973h181.893422c6.596135 0 11.992973-5.396838 11.992973-11.992973v-0.999414c0-6.596135-5.396838-11.992973-11.992973-11.992973z" p-id="4582" fill="#2B4CC9"></path><path d="M306.120632 373.28128c-1.099356 0-1.998829-0.899473-1.998828-1.998828v-0.999415c0-1.099356 0.899473-1.998829 1.998828-1.998829h133.921531c1.099356 0 1.998829 0.899473 1.998829 1.998829v0.999415c0 1.099356-0.899473 1.998829-1.998829 1.998828H306.120632z" p-id="4583" fill="#2B4CC9"></path><path d="M440.042163 358.290064H306.120632c-6.596135 0-11.992973 5.396838-11.992972 11.992973v0.999415c0 6.596135 5.396838 11.992973 11.992972 11.992973h133.921531c6.596135 0 11.992973-5.396838 11.992973-11.992973v-0.999415c0-6.596135-5.396838-11.992973-11.992973-11.992973z" p-id="4584" fill="#2B4CC9"></path><path d="M499.007613 161.405427c-1.099356 0-1.998829-0.899473-1.998829-1.998829v-9.994144c0-1.099356 0.899473-1.998829 1.998829-1.998829h245.855944c1.099356 0 1.998829 0.899473 1.998828 1.998829v9.994144c0 1.099356-0.899473 1.998829-1.998828 1.998829H499.007613z" p-id="4585" fill="#2B4CC9"></path><path d="M744.863557 137.419481H499.007613c-6.596135 0-11.992973 5.396838-11.992973 11.992973v9.994144c0 6.596135 5.396838 11.992973 11.992973 11.992973h245.855944c6.596135 0 11.992973-5.396838 11.992972-11.992973v-9.994144c0-6.596135-5.396838-11.992973-11.992972-11.992973z" p-id="4586" fill="#2B4CC9"></path><path d="M751.35975 75.955495h-257.848917c-6.596135 0-11.992973 5.396838-11.992972 11.992973v923.45891c0 6.596135 5.396838 11.992973 11.992972 11.992973h50.670311c5.496779 0 9.994144-4.497365 9.994144-9.994144s-4.497365-9.994144-9.994144-9.994144h-42.674995v-907.46828h241.858286V568.16709c0 5.496779 4.497365 9.994144 9.994144 9.994144s9.994144-4.497365 9.994144-9.994144V87.948468c0-6.596135-5.396838-11.992973-11.992973-11.992973z" p-id="4587" fill="#2B4CC9"></path></svg>