<?xml version="1.0" standalone="no"?><!DOCTYPE svg PUBLIC "-//W3C//DTD SVG 1.1//EN" "http://www.w3.org/Graphics/SVG/1.1/DTD/svg11.dtd"><svg t="1539245832895" class="icon" style="" viewBox="0 0 1024 1024" version="1.1" xmlns="http://www.w3.org/2000/svg" p-id="7221" xmlns:xlink="http://www.w3.org/1999/xlink" width="200" height="200"><defs><style type="text/css"></style></defs><path d="M365.585015 975.913413A51.830314 51.830314 0 0 0 420.401437 1023.904445h182.792508a51.830314 51.830314 0 0 0 54.816423-47.991032V344.138143H365.585015zM603.407238 192.059895h-183.005801a51.830314 51.830314 0 0 0-54.816422 47.991032v56.096184h292.638646v-56.096184A51.830314 51.830314 0 0 0 603.407238 192.059895zM237.60893 0.095769H54.816423A51.830314 51.830314 0 0 0 0 48.0868v88.090205h292.425353V48.0868A51.830314 51.830314 0 0 0 237.60893 0.095769zM0 184.168037v791.745376A51.830314 51.830314 0 0 0 54.816423 1023.904445h182.792507a51.830314 51.830314 0 0 0 54.816423-47.991032V184.168037zM193.243888 863.934339H73.159662a16.210304 16.210304 0 1 1 0-31.994021h120.084226a16.210304 16.210304 0 1 1 0 31.994021z m-138.427465-79.985053a17.276771 17.276771 0 0 1 18.343239-15.99701h94.062422a16.210304 16.210304 0 1 1 0 31.994021H73.159662a17.276771 17.276771 0 0 1-18.343239-15.997011z m164.449268-47.991032H73.159662a16.210304 16.210304 0 1 1 0-31.994021h146.319323a16.210304 16.210304 0 1 1 0 31.994021zM731.383323 975.913413A51.830314 51.830314 0 0 0 786.199746 1023.904445h182.792507A51.830314 51.830314 0 0 0 1023.808676 975.913413V184.168037H731.383323zM968.992253 0.095769h-182.792507a51.830314 51.830314 0 0 0-54.816423 47.991031v88.090205H1023.808676V48.0868A51.830314 51.830314 0 0 0 968.992253 0.095769z" p-id="7222"></path></svg>