<?xml version="1.0" standalone="no"?><!DOCTYPE svg PUBLIC "-//W3C//DTD SVG 1.1//EN" "http://www.w3.org/Graphics/SVG/1.1/DTD/svg11.dtd"><svg t="1551778571372" class="icon" style="" viewBox="0 0 1024 1024" version="1.1" xmlns="http://www.w3.org/2000/svg" p-id="16772" xmlns:xlink="http://www.w3.org/1999/xlink" width="20" height="20"><defs><style type="text/css"></style></defs><path d="M640 384c-176 0-320 144-320 320s144 320 320 320 320-144 320-320-144-320-320-320z m0 576c-140.8 0-256-115.2-256-256s115.2-256 256-256 256 115.2 256 256-115.2 256-256 256zM128 832V64h640v278.4c22.4 6.4 44.8 19.2 64 28.8V0H64v896h243.2c-12.8-19.2-22.4-41.6-28.8-64H128z m544-160v-160h-64v160h-160v64h160v160h64v-160h160v-64h-160z" fill="" p-id="16773"></path></svg>