<?xml version="1.0" standalone="no"?><!DOCTYPE svg PUBLIC "-//W3C//DTD SVG 1.1//EN" "http://www.w3.org/Graphics/SVG/1.1/DTD/svg11.dtd"><svg t="1548136388610" class="icon" style="" viewBox="0 0 1024 1024" version="1.1" xmlns="http://www.w3.org/2000/svg" p-id="10595" xmlns:xlink="http://www.w3.org/1999/xlink" width="200" height="200"><defs><style type="text/css"></style></defs><path d="M905.706814 551.2998H642.343024a39.378557 39.378557 0 0 1 0-78.757114H905.706814a39.378557 39.378557 0 0 0 39.378557-39.378557v-315.028458a39.378557 39.378557 0 0 0-39.378557-39.378557h-787.571143a39.378557 39.378557 0 0 0-39.378557 39.378557v315.028458a39.378557 39.378557 0 0 0 39.378557 39.378557h40.638671a39.378557 39.378557 0 0 1 0 78.757114H118.135671C53.003538 551.2998 0 498.296262 0 433.164129v-315.028458C0 53.003538 53.003538 0 118.135671 0h787.571143c65.132134 0 118.135671 53.003538 118.135672 118.135671v315.028458c0 65.132134-53.003538 118.135671-118.135672 118.135671zM809.701892 1023.842486H333.457622a39.378557 39.378557 0 0 1 0-78.757115h476.24427c15.987694 0 29.533918-18.035379 29.533918-39.378557v-157.514228c0-21.343178-13.546224-39.378557-29.533918-39.378557H484.828796a39.378557 39.378557 0 0 1 0-78.757115h324.873096c59.697893 0 108.291032 53.003538 108.291032 118.135672v157.514228c0 65.132134-48.59314 118.135671-108.291032 118.135672z" p-id="10596"></path><path d="M327.314567 782.373173a39.378557 39.378557 0 0 1-39.378557-39.378557V394.179357c0-64.344562 53.003538-116.718043 118.135671-116.718043s118.135671 52.373481 118.135672 116.718043v273.129672a39.378557 39.378557 0 0 1-78.757115 0V394.179357c0-20.949392-17.641594-37.960929-39.378557-37.960929s-39.378557 17.011537-39.378557 37.960929v348.736502a39.378557 39.378557 0 0 1-39.378557 39.457314z" p-id="10597"></path><path d="M327.314567 1023.842486a39.378557 39.378557 0 0 1-28.825104-12.522381l-186.811875-200.673128c-44.576527-44.49777-44.103984-119.080757 1.968928-165.153668a117.663129 117.663129 0 0 1 166.019997-1.023843l70.645131 70.645132a39.378557 39.378557 0 0 1-55.681279 55.68128l-70.566375-70.566375a38.906014 38.906014 0 0 0-54.736194 0.945086 38.906014 38.906014 0 0 0-0.945086 54.814951l187.756961 201.69697a39.378557 39.378557 0 0 1-28.825104 66.155976z" p-id="10598"></path></svg>