<?xml version="1.0" standalone="no"?><!DOCTYPE svg PUBLIC "-//W3C//DTD SVG 1.1//EN" "http://www.w3.org/Graphics/SVG/1.1/DTD/svg11.dtd"><svg t="1548128442511" class="icon" style="" viewBox="0 0 1024 1024" version="1.1" xmlns="http://www.w3.org/2000/svg" p-id="3767" xmlns:xlink="http://www.w3.org/1999/xlink" width="200" height="200"><defs><style type="text/css"></style></defs><path d="M293.888 933.205333a201.728 201.728 0 0 1-203.093333-204.8 210.261333 210.261333 0 0 1 61.44-146.090666L257.365333 477.866667A34.133333 34.133333 0 0 1 307.2 525.312l-106.496 104.789333a141.653333 141.653333 0 0 0-41.642667 98.645334 133.802667 133.802667 0 0 0 39.253334 96.938666 138.581333 138.581333 0 0 0 195.584-2.389333l163.84-164.181333a139.605333 139.605333 0 0 0 41.642666-98.645334 132.778667 132.778667 0 0 0-39.253333-96.597333 34.133333 34.133333 0 1 1 48.469333-48.469333 201.386667 201.386667 0 0 1 59.050667 146.090666 210.261333 210.261333 0 0 1-61.44 146.090667L443.733333 871.765333a209.578667 209.578667 0 0 1-149.845333 61.44z" p-id="3768"></path><path d="M439.637333 618.496a34.133333 34.133333 0 0 1-24.234666-9.898667 201.386667 201.386667 0 0 1-59.050667-146.090666 210.261333 210.261333 0 0 1 61.44-146.090667l164.181333-164.181333a206.848 206.848 0 0 1 292.181334-2.389334 204.8 204.8 0 0 1 59.050666 146.090667 210.261333 210.261333 0 0 1-61.44 147.797333l-105.130666 102.4a34.133333 34.133333 0 0 1-48.128-48.128l104.789333-104.789333a141.653333 141.653333 0 0 0 41.642667-98.645333 133.802667 133.802667 0 0 0-39.253334-96.938667 138.581333 138.581333 0 0 0-195.584 2.389333l-163.84 164.181334a139.605333 139.605333 0 0 0-41.642666 98.645333 132.778667 132.778667 0 0 0 39.253333 96.597333 34.133333 34.133333 0 0 1 0 48.469334 34.133333 34.133333 0 0 1-24.234667 10.581333z" p-id="3769"></path></svg>