<?xml version="1.0" standalone="no"?><!DOCTYPE svg PUBLIC "-//W3C//DTD SVG 1.1//EN" "http://www.w3.org/Graphics/SVG/1.1/DTD/svg11.dtd"><svg t="1539084543767" class="icon" style="" viewBox="0 0 1024 1024" version="1.1" xmlns="http://www.w3.org/2000/svg" p-id="6213" xmlns:xlink="http://www.w3.org/1999/xlink" width="200" height="200"><defs><style type="text/css"></style></defs><path d="M173.17888 173.21984V139.264c0-18.67776 15.1552-33.87392 33.83296-33.87392h677.60128c-11.83744-20.11136-42.84416-33.792-67.74784-33.792H207.01184c-37.39648 0-67.70688 30.26944-67.70688 67.70688v745.34912c0 37.43744 30.3104 67.70688 67.70688 67.70688h33.91488V207.09376h-33.91488a33.87392 33.87392 0 0 1-33.83296-33.87392z" fill="#BFCBD9" p-id="6214"></path><path d="M511.95904 207.09376H274.75968v745.30816h542.1056c37.51936 0 67.74784-30.39232 67.74784-67.66592V207.09376H511.95904z m237.1584 372.57216h-338.82112v-33.87392h338.78016l0.04096 33.87392z m0-101.5808h-338.82112v-33.792h338.78016l0.04096 33.792z m0-101.5808h-338.82112v-33.91488h338.78016l0.04096 33.91488z" fill="#BFCBD9" p-id="6215"></path><path d="M862.28992 836.97664a29.45024 29.45024 0 0 0 13.88544 10.32192c1.35168 0.8192 2.58048 1.51552 3.52256 2.33472a12.77952 12.77952 0 0 1 4.25984 6.47168 23.7568 23.7568 0 0 1-0.28672 8.23296c-0.6144 3.2768-1.55648 6.47168-2.8672 9.78944s-2.90816 6.26688-4.83328 9.0112a19.82464 19.82464 0 0 1-6.30784 5.69344c-2.29376 1.10592-4.25984 1.67936-5.98016 1.67936s-3.60448-0.4096-5.77536-1.10592a72.99072 72.99072 0 0 0-7.12704-1.55648 32.68608 32.68608 0 0 0-8.72448-0.28672 40.7552 40.7552 0 0 0-8.92928 1.8432 18.2272 18.2272 0 0 0-7.65952 4.83328 27.11552 27.11552 0 0 0-7.94624 16.22016 30.9248 30.9248 0 0 0 2.58048 17.36704 10.69056 10.69056 0 0 1-0.86016 11.264c-1.10592 1.55648-2.94912 3.11296-5.44768 4.7104s-5.20192 3.072-8.15104 4.38272a50.3808 50.3808 0 0 1-17.94048 4.21888 7.53664 7.53664 0 0 1-4.87424-2.048 10.40384 10.40384 0 0 1-3.11296-4.25984h-0.32768a35.0208 35.0208 0 0 0-10.73152-15.19616 26.624 26.624 0 0 0-17.69472-6.38976 27.8528 27.8528 0 0 0-17.6128 6.38976 35.79904 35.79904 0 0 0-11.10016 14.90944 9.33888 9.33888 0 0 1-4.25984 4.95616 13.39392 13.39392 0 0 1-6.22592 1.59744 34.32448 34.32448 0 0 1-9.05216-1.4336 72.9088 72.9088 0 0 1-9.99424-3.56352 44.40064 44.40064 0 0 1-9.05216-4.95616 23.63392 23.63392 0 0 1-5.98016-5.69344c-0.94208-1.31072-1.51552-2.8672-1.59744-4.66944s0.65536-4.25984 2.17088-7.5776a28.91776 28.91776 0 0 0 2.4576-14.86848 25.3952 25.3952 0 0 0-7.33184-15.48288c-2.62144-2.82624-5.9392-4.66944-9.70752-5.57056s-7.49568-1.14688-10.93632-0.98304a47.18592 47.18592 0 0 0-12.32896 2.29376 11.0592 11.0592 0 0 1-7.9872-0.57344 13.1072 13.1072 0 0 1-5.85728-5.24288 57.99936 57.99936 0 0 1-8.15104-19.33312 25.92768 25.92768 0 0 1-0.6144-8.72448c0.6144-4.17792 2.53952-6.79936 5.7344-7.90528a39.81312 39.81312 0 0 0 15.44192-11.18208 25.72288 25.72288 0 0 0 6.9632-17.48992 24.28928 24.28928 0 0 0-6.9632-17.28512 41.3696 41.3696 0 0 0-15.44192-10.8544c-1.67936-0.57344-3.11296-2.00704-4.25984-4.17792a14.49984 14.49984 0 0 1-1.67936-6.63552c0-2.49856 0.36864-5.20192 1.06496-8.23296a54.4768 54.4768 0 0 1 7.29088-16.5888 17.28512 17.28512 0 0 1 5.28384-5.24288 6.88128 6.88128 0 0 1 4.42368-1.14688 29.65504 29.65504 0 0 1 4.66944 1.14688c5.81632 2.29376 11.71456 2.94912 17.94048 2.12992s11.6736-3.56352 16.46592-8.06912a21.42208 21.42208 0 0 0 5.03808-8.3968 49.23392 49.23392 0 0 0 1.92512-18.59584c-0.24576-2.6624-0.53248-4.46464-0.69632-5.69344a19.16928 19.16928 0 0 1-0.98304-4.01408 6.5536 6.5536 0 0 1 0.4096-4.01408 17.2032 17.2032 0 0 1 6.144-6.9632c2.94912-1.96608 6.144-3.64544 9.54368-4.95616 3.4816-1.26976 6.79936-2.33472 10.07616-2.94912a37.35552 37.35552 0 0 1 7.70048-0.98304 7.7824 7.7824 0 0 1 5.89824 2.4576c1.39264 1.59744 2.41664 3.2768 2.99008 5.03808a35.51232 35.51232 0 0 0 10.24 13.43488 25.96864 25.96864 0 0 0 16.95744 5.85728 30.14656 30.14656 0 0 0 28.672-19.6608 21.42208 21.42208 0 0 1 3.60448-4.66944c1.67936-1.59744 3.2768-2.4576 5.03808-2.4576 2.62144 0 5.61152 0.45056 8.72448 1.14688 3.19488 0.73728 6.22592 1.80224 9.33888 3.11296 3.072 1.26976 5.89824 3.03104 8.47872 5.12s4.58752 4.3008 6.10304 6.79936c0.90112 1.51552 1.2288 3.11296 0.86016 4.95616a36.53632 36.53632 0 0 1-1.10592 3.85024 29.53216 29.53216 0 0 0 5.98016 33.25952c4.54656 4.62848 10.24 7.08608 16.87552 7.5776a37.56032 37.56032 0 0 0 18.6368-3.2768 9.37984 9.37984 0 0 1 5.61152-1.10592c2.21184 0.2048 4.096 1.024 5.57056 2.58048 2.8672 2.62144 5.40672 6.71744 7.65952 12.0832 2.21184 5.44768 3.6864 10.89536 4.38272 16.30208 0.4096 3.23584-0.12288 5.77536-1.59744 7.53664a10.15808 10.15808 0 0 1-4.34176 3.60448 33.91488 33.91488 0 0 0-15.19616 10.93632 27.56608 27.56608 0 0 0-6.30784 17.8176c0.04096 6.30784 1.80224 11.8784 5.3248 16.7936m-67.33824-60.86656c-5.69344-5.57056-12.32896-9.95328-19.90656-13.18912s-15.7696-4.83328-24.33024-4.83328a62.75072 62.75072 0 0 0-43.99104 18.0224 61.72672 61.72672 0 0 0-13.27104 67.66592 62.75072 62.75072 0 0 0 33.01376 33.01376c7.5776 3.19488 15.60576 4.79232 24.24832 4.79232a62.42304 62.42304 0 0 0 44.2368-18.14528c5.61152-5.69344 10.07616-12.288 13.27104-19.6608 3.2768-7.5776 4.87424-15.5648 4.87424-24.00256a61.07136 61.07136 0 0 0-18.14528-43.66336m0 0z" fill="#BFCBD9" p-id="6216"></path></svg>